# xmcd CD database file
#
# Track frame offsets:
#	150
#	20400
#	45431
#	71161
#	104109
#	123909
#	152744
#	179909
#	204098
#	223641
#	245864
#	283522
#
# Disc length: 3982 seconds
#
# Revision: 0
# Processed by: cddbd v1.5.2PL0 Copyright (c) Steve Scherf et al.
# Submitted via: CDex 1.51
#
DISCID=b60f8c0c
DTITLE=Jeff Stone - 3 Faces of the Blues
DYEAR=2011
DGENRE=Blues
TTITLE0=God's Got it - with Rev. KM Williams
TTITLE1=Goin' Over That Hill - with Rev. KM Williams
TTITLE2=I Know You Don't Love Me - with Rev. KM Williams
TTITLE3=The Blood of Jesus - with Rev. KM Williams
TTITLE4=So Full of Jive - with Charlie Love
TTITLE5=I Know You Don't Love Me - with Charlie Love
TTITLE6=Dance of the Holy Spirit - with Charlie Love
TTITLE7=I Went Down to the Water - with Charlie Love
TTITLE8=This Train - with Sherry Pruitt
TTITLE9=Sunshine in Every Rain - with Sherry Pruitt
TTITLE10=Standing in the Mercy of Our Lord - with Sherry Pruitt
TTITLE11=It Don't Cost Very Much - with Sherry Pruitt
EXTD=YEAR: 2011
EXTT0=
EXTT1=
EXTT2=
EXTT3=
EXTT4=
EXTT5=
EXTT6=
EXTT7=
EXTT8=
EXTT9=
EXTT10=
EXTT11=
PLAYORDER=
